<svg width="18" height="20" viewBox="0 0 18 20" fill="none" xmlns="http://www.w3.org/2000/svg">
<path d="M7 3L7.42747 3.90403C7.77705 3.73873 8 3.38669 8 3H7ZM9 1V0V1ZM11 3H10C10 3.38669 10.2229 3.73873 10.5725 3.90403L11 3ZM15 9H16C16 8.98436 15.9996 8.96873 15.9989 8.95311L15 9ZM15 12H14C14 12.0402 14.0024 12.0803 14.0072 12.1202L15 12ZM17 15V16C17.4542 16 17.8513 15.694 17.967 15.2548C18.0827 14.8156 17.8879 14.3536 17.4928 14.1298L17 15ZM1 15L0.507247 14.1298C0.112053 14.3536 -0.0827104 14.8156 0.0330023 15.2548C0.148715 15.694 0.545842 16 1 16V15ZM3 12L3.99275 12.1202C3.99758 12.0803 4 12.0402 4 12H3ZM3 9L2.0011 8.95311C2.00037 8.96873 2 8.98436 2 9H3ZM7 15C7 14.4477 6.55228 14 6 14C5.44772 14 5 14.4477 5 15H7ZM9 19V20V19ZM13 15C13 14.4477 12.5523 14 12 14C11.4477 14 11 14.4477 11 15H13ZM8 3C8 2.73478 8.10536 2.48043 8.29289 2.29289L6.87868 0.87868C6.31607 1.44129 6 2.20435 6 3H8ZM8.29289 2.29289C8.48043 2.10536 8.73478 2 9 2V0C8.20435 0 7.44129 0.31607 6.87868 0.87868L8.29289 2.29289ZM9 2C9.26522 2 9.51957 2.10536 9.70711 2.29289L11.1213 0.87868C10.5587 0.31607 9.79565 0 9 0V2ZM9.70711 2.29289C9.89464 2.48043 10 2.73478 10 3H12C12 2.20435 11.6839 1.44129 11.1213 0.87868L9.70711 2.29289ZM10.5725 3.90403C11.5569 4.36948 12.396 5.09402 13 6L14.6641 4.8906C13.8588 3.68263 12.7399 2.71657 11.4275 2.09597L10.5725 3.90403ZM13 6C13.604 6.90598 13.95 7.95923 14.0011 9.04689L15.9989 8.95311C15.9308 7.50291 15.4694 6.09857 14.6641 4.8906L13 6ZM14 9V12H16V9H14ZM14.0072 12.1202C14.1013 12.8973 14.3765 13.6415 14.8108 14.2928L16.4749 13.1834C16.2143 12.7926 16.0492 12.3461 15.9928 11.8798L14.0072 12.1202ZM14.8108 14.2928C15.245 14.9442 15.8261 15.4844 16.5072 15.8702L17.4928 14.1298C17.084 13.8984 16.7354 13.5742 16.4749 13.1834L14.8108 14.2928ZM17 14H1V16H17V14ZM1.49275 15.8702C2.17393 15.4844 2.75502 14.9442 3.18924 14.2928L1.52514 13.1834C1.2646 13.5742 0.91595 13.8984 0.507247 14.1298L1.49275 15.8702ZM3.18924 14.2928C3.62346 13.6415 3.89868 12.8973 3.99275 12.1202L2.00725 11.8798C1.95081 12.3461 1.78567 12.7926 1.52514 13.1834L3.18924 14.2928ZM4 12V9H2V12H4ZM3.9989 9.04689C4.04995 7.95923 4.39602 6.90598 5 6L3.3359 4.8906C2.53059 6.09857 2.06917 7.50291 2.0011 8.95311L3.9989 9.04689ZM5 6C5.60398 5.09402 6.44312 4.36948 7.42747 3.90403L6.57253 2.09597C5.26006 2.71657 4.14121 3.68263 3.3359 4.8906L5 6ZM5 15V16H7V15H5ZM5 16C5 17.0609 5.42143 18.0783 6.17157 18.8284L7.58579 17.4142C7.21071 17.0391 7 16.5304 7 16H5ZM6.17157 18.8284C6.92172 19.5786 7.93913 20 9 20V18C8.46957 18 7.96086 17.7893 7.58579 17.4142L6.17157 18.8284ZM9 20C10.0609 20 11.0783 19.5786 11.8284 18.8284L10.4142 17.4142C10.0391 17.7893 9.53043 18 9 18V20ZM11.8284 18.8284C12.5786 18.0783 13 17.0609 13 16H11C11 16.5304 10.7893 17.0391 10.4142 17.4142L11.8284 18.8284ZM13 16V15H11V16H13Z" fill="#8B929A"/>
</svg>
