<svg width="20" height="20" viewBox="0 0 20 20" fill="none" xmlns="http://www.w3.org/2000/svg">
<path d="M19 12L18.2929 12.7071C18.5789 12.9931 19.009 13.0787 19.3827 12.9239C19.7564 12.7691 20 12.4045 20 12H19ZM16 9L16.7071 8.29289C16.5196 8.10536 16.2652 8 16 8V9ZM9 1V0V1ZM18 1V0V1ZM13 13C13 12.4477 12.5523 12 12 12C11.4477 12 11 12.4477 11 13H13ZM4 16V15C3.73478 15 3.48043 15.1054 3.29289 15.2929L4 16ZM1 19H0C0 19.4045 0.243642 19.7691 0.617317 19.9239C0.990991 20.0787 1.42111 19.9931 1.70711 19.7071L1 19ZM4 9C4.55228 9 5 8.55228 5 8C5 7.44772 4.55228 7 4 7V9ZM19.7071 11.2929L16.7071 8.29289L15.2929 9.70711L18.2929 12.7071L19.7071 11.2929ZM16 8H9V10H16V8ZM9 8L7.58579 9.41421C7.96086 9.78929 8.46957 10 9 10V8ZM9 8H7C7 8.53043 7.21071 9.03914 7.58579 9.41421L9 8ZM9 8V2H7V8H9ZM9 2V2L7.58579 0.585786C7.21071 0.960859 7 1.46957 7 2H9ZM9 2V2V0C8.46957 0 7.96086 0.210714 7.58579 0.585786L9 2ZM9 2H18V0H9V2ZM18 2V2L19.4142 0.585786C19.0391 0.210713 18.5304 0 18 0V2ZM18 2V2H20C20 1.46957 19.7893 0.960861 19.4142 0.585786L18 2ZM18 2V12H20V2H18ZM11 13V15H13V13H11ZM11 15V15L12.4142 16.4142C12.7893 16.0391 13 15.5304 13 15H11ZM11 15V15V17C11.5304 17 12.0391 16.7893 12.4142 16.4142L11 15ZM11 15H4V17H11V15ZM3.29289 15.2929L0.292893 18.2929L1.70711 19.7071L4.70711 16.7071L3.29289 15.2929ZM2 19V9H0V19H2ZM2 9H2L0.585786 7.58579C0.210714 7.96086 0 8.46957 0 9H2ZM2 9H2V7C1.46957 7 0.960859 7.21071 0.585786 7.58579L2 9ZM2 9H4V7H2V9Z" fill="#8B929A"/>
</svg>
