<svg width="16" height="20" viewBox="0 0 16 20" fill="none" xmlns="http://www.w3.org/2000/svg">
<path d="M10 1L10.7071 0.292893C10.5196 0.105357 10.2652 0 10 0V1ZM15 6H16C16 5.73478 15.8946 5.48043 15.7071 5.29289L15 6ZM1 17H0H1ZM3 1V0V1ZM5 4C4.44772 4 4 4.44772 4 5C4 5.55228 4.44772 6 5 6V4ZM6 6C6.55228 6 7 5.55228 7 5C7 4.44772 6.55228 4 6 4V6ZM5 10C4.44772 10 4 10.4477 4 11C4 11.5523 4.44772 12 5 12V10ZM11 12C11.5523 12 12 11.5523 12 11C12 10.4477 11.5523 10 11 10V12ZM9 14C8.44772 14 8 14.4477 8 15C8 15.5523 8.44772 16 9 16V14ZM11 16C11.5523 16 12 15.5523 12 15C12 14.4477 11.5523 14 11 14V16ZM9 1V5H11V1H9ZM9 5C9 5.53043 9.21071 6.03914 9.58579 6.41421L11 5V5H9ZM9.58579 6.41421C9.96086 6.78929 10.4696 7 11 7V5V5L9.58579 6.41421ZM11 7H15V5H11V7ZM13 18H3V20H13V18ZM3 18C2.73478 18 2.48043 17.8946 2.29289 17.7071L0.87868 19.1213C1.44129 19.6839 2.20435 20 3 20V18ZM2.29289 17.7071C2.10536 17.5196 2 17.2652 2 17H0C0 17.7957 0.31607 18.5587 0.87868 19.1213L2.29289 17.7071ZM2 17V3H0V17H2ZM2 3C2 2.73478 2.10536 2.48043 2.29289 2.29289L0.87868 0.87868C0.31607 1.44129 0 2.20435 0 3H2ZM2.29289 2.29289C2.48043 2.10536 2.73478 2 3 2V0C2.20435 0 1.44129 0.31607 0.87868 0.87868L2.29289 2.29289ZM3 2H10V0H3V2ZM9.29289 1.70711L14.2929 6.70711L15.7071 5.29289L10.7071 0.292893L9.29289 1.70711ZM14 6V17H16V6H14ZM14 17C14 17.2652 13.8946 17.5196 13.7071 17.7071L15.1213 19.1213C15.6839 18.5587 16 17.7957 16 17H14ZM13.7071 17.7071C13.5196 17.8946 13.2652 18 13 18V20C13.7957 20 14.5587 19.6839 15.1213 19.1213L13.7071 17.7071ZM5 6H6V4H5V6ZM5 12H11V10H5V12ZM9 16H11V14H9V16Z" fill="#8B929A"/>
</svg>
