<svg width="20" height="20" viewBox="0 0 20 20" fill="none" xmlns="http://www.w3.org/2000/svg">
<path d="M6 7.00024C6.55228 7.00024 7 6.55253 7 6.00024C7 5.44796 6.55228 5.00024 6 5.00024V7.00024ZM3 6.00024V5.00024V6.00024ZM1 8.00024H0H1ZM1 17.0002H0H1ZM15 14.0002C15 13.448 14.5523 13.0002 14 13.0002C13.4477 13.0002 13 13.448 13 14.0002H15ZM6 14.0002H5C5 14.5525 5.44772 15.0002 6 15.0002V14.0002ZM9 14.0002V15.0002C9.26522 15.0002 9.51957 14.8949 9.70711 14.7073L9 14.0002ZM17.5 5.50023L16.7929 4.79312L17.5 5.50023ZM18.1213 4.00023H19.1213H18.1213ZM16 1.87891V0.878906V1.87891ZM14.5 2.50023L13.7929 1.79312V1.79312L14.5 2.50023ZM6 11.0002L5.29289 10.2931C5.10536 10.4807 5 10.735 5 11.0002H6ZM13.7071 3.29314C13.3166 2.90261 12.6834 2.90261 12.2929 3.29314C11.9024 3.68366 11.9024 4.31683 12.2929 4.70735L13.7071 3.29314ZM15.2929 7.70735C15.6834 8.09788 16.3166 8.09788 16.7071 7.70735C17.0976 7.31683 17.0976 6.68366 16.7071 6.29314L15.2929 7.70735ZM6 5.00024H3V7.00024H6V5.00024ZM3 5.00024C2.20435 5.00024 1.44129 5.31631 0.87868 5.87892L2.29289 7.29314C2.48043 7.1056 2.73478 7.00024 3 7.00024V5.00024ZM0.87868 5.87892C0.31607 6.44153 0 7.20459 0 8.00024H2C2 7.73503 2.10536 7.48067 2.29289 7.29314L0.87868 5.87892ZM0 8.00024V17.0002H2V8.00024H0ZM0 17.0002C0 17.7959 0.31607 18.559 0.87868 19.1216L2.29289 17.7074C2.10536 17.5198 2 17.2655 2 17.0002H0ZM0.87868 19.1216C1.44129 19.6842 2.20435 20.0002 3 20.0002V18.0002C2.73478 18.0002 2.48043 17.8949 2.29289 17.7074L0.87868 19.1216ZM3 20.0002H12V18.0002H3V20.0002ZM12 20.0002C12.7957 20.0002 13.5587 19.6842 14.1213 19.1216L12.7071 17.7074C12.5196 17.8949 12.2652 18.0002 12 18.0002V20.0002ZM14.1213 19.1216C14.6839 18.559 15 17.7959 15 17.0002H13C13 17.2655 12.8946 17.5198 12.7071 17.7074L14.1213 19.1216ZM15 17.0002V14.0002H13V17.0002H15ZM6 15.0002H9V13.0002H6V15.0002ZM9.70711 14.7073L18.2071 6.20733L16.7929 4.79312L8.29289 13.2931L9.70711 14.7073ZM18.2071 6.20733C18.7925 5.62197 19.1213 4.82805 19.1213 4.00023H17.1213C17.1213 4.29762 17.0032 4.58283 16.7929 4.79312L18.2071 6.20733ZM19.1213 4.00023C19.1213 3.1724 18.7925 2.37848 18.2071 1.79312L16.7929 3.20733C17.0032 3.41762 17.1213 3.70283 17.1213 4.00023H19.1213ZM18.2071 1.79312C17.6217 1.20776 16.8278 0.878906 16 0.878906V2.87891C16.2974 2.87891 16.5826 2.99705 16.7929 3.20733L18.2071 1.79312ZM16 0.878906C15.1722 0.878906 14.3783 1.20776 13.7929 1.79312L15.2071 3.20733C15.4174 2.99705 15.7026 2.87891 16 2.87891V0.878906ZM13.7929 1.79312L5.29289 10.2931L6.70711 11.7073L15.2071 3.20733L13.7929 1.79312ZM5 11.0002V14.0002H7V11.0002H5ZM12.2929 4.70735L15.2929 7.70735L16.7071 6.29314L13.7071 3.29314L12.2929 4.70735Z" fill="#8B929A"/>
</svg>
