<svg width="18" height="18" viewBox="0 0 18 18" fill="none" xmlns="http://www.w3.org/2000/svg">
<path d="M17 9L17.7071 9.70711C18.0976 9.31658 18.0976 8.68342 17.7071 8.29289L17 9ZM7 8C6.44772 8 6 8.44772 6 9C6 9.55229 6.44772 10 7 10V8ZM12.2929 12.2929C11.9024 12.6834 11.9024 13.3166 12.2929 13.7071C12.6834 14.0976 13.3166 14.0976 13.7071 13.7071L12.2929 12.2929ZM13.7071 4.29289C13.3166 3.90237 12.6834 3.90237 12.2929 4.29289C11.9024 4.68342 11.9024 5.31658 12.2929 5.70711L13.7071 4.29289ZM2 1C2 0.447715 1.55228 0 1 0C0.447715 0 0 0.447715 0 1H2ZM0 17C0 17.5523 0.447715 18 1 18C1.55228 18 2 17.5523 2 17H0ZM17 8H7V10H17V8ZM16.2929 8.29289L12.2929 12.2929L13.7071 13.7071L17.7071 9.70711L16.2929 8.29289ZM17.7071 8.29289L13.7071 4.29289L12.2929 5.70711L16.2929 9.70711L17.7071 8.29289ZM0 1V17H2V1H0Z" fill="#8B929A"/>
</svg>
