<svg width="18" height="19" viewBox="0 0 18 19" fill="none" xmlns="http://www.w3.org/2000/svg">
<path d="M9.36291 11.76H14.1869C14.0429 12.272 13.8349 12.744 13.5629 13.176C13.2909 13.608 12.9549 13.992 12.5549 14.328C12.1709 14.664 11.7069 14.928 11.1629 15.12C10.6189 15.296 10.0029 15.384 9.31491 15.384C8.27491 15.384 7.33891 15.144 6.50691 14.664C5.69091 14.184 5.04291 13.512 4.56291 12.648C4.08291 11.768 3.84291 10.752 3.84291 9.6C3.84291 8.432 4.08291 7.424 4.56291 6.576C5.05891 5.728 5.72291 5.08 6.55491 4.632C7.38691 4.168 8.30691 3.936 9.31491 3.936C10.3869 3.936 11.2909 4.168 12.0269 4.632C12.7789 5.08 13.3629 5.672 13.7789 6.408L16.7069 4.704C16.1949 3.92 15.5789 3.248 14.8589 2.688C14.1549 2.112 13.3389 1.664 12.4109 1.344C11.4989 1.024 10.4669 0.863999 9.31491 0.863999C8.01891 0.863999 6.81891 1.072 5.71491 1.488C4.61091 1.904 3.65091 2.496 2.83491 3.264C2.01891 4.032 1.37891 4.96 0.914906 6.048C0.466906 7.12 0.242906 8.304 0.242906 9.6C0.242906 10.896 0.458906 12.088 0.890906 13.176C1.33891 14.264 1.96291 15.2 2.76291 15.984C3.57891 16.768 4.53091 17.376 5.61891 17.808C6.72291 18.24 7.92291 18.456 9.21891 18.456C10.5949 18.456 11.8189 18.208 12.8909 17.712C13.9629 17.216 14.8589 16.536 15.5789 15.672C16.3149 14.792 16.8509 13.784 17.1869 12.648C17.5389 11.512 17.6909 10.304 17.6429 9.024H9.36291V11.76Z" fill="#38F094"/>
<path d="M9.36291 11.76H8.36291V12.76H9.36291V11.76ZM14.1869 11.76L15.1496 12.0307L15.507 10.76H14.1869V11.76ZM13.5629 13.176L14.4091 13.7088L13.5629 13.176ZM12.5549 14.328L11.9117 13.5623L11.904 13.5688L11.8964 13.5754L12.5549 14.328ZM11.1629 15.12L11.4707 16.0714L11.4833 16.0674L11.4957 16.063L11.1629 15.12ZM6.50691 14.664L5.99987 15.526L6.00718 15.5302L6.50691 14.664ZM4.56291 12.648L3.68498 13.1269L3.68875 13.1336L4.56291 12.648ZM4.56291 6.576L3.69972 6.07112L3.69614 6.07723L3.69265 6.0834L4.56291 6.576ZM6.55491 4.632L7.02901 5.51247L7.03552 5.50896L7.04198 5.50536L6.55491 4.632ZM12.0269 4.632L11.4936 5.47792L11.5043 5.48465L11.5151 5.4911L12.0269 4.632ZM13.7789 6.408L12.9083 6.90006L13.4066 7.78166L14.2819 7.27229L13.7789 6.408ZM16.7069 4.704L17.2099 5.56829L18.1199 5.03872L17.5442 4.15721L16.7069 4.704ZM14.8589 2.688L14.2257 3.46196L14.2352 3.46977L14.245 3.47735L14.8589 2.688ZM12.4109 1.344L12.0798 2.28761L12.0849 2.28937L12.4109 1.344ZM5.71491 1.488L6.06751 2.42377H6.06752L5.71491 1.488ZM2.83491 3.264L3.52027 3.9922L3.52027 3.9922L2.83491 3.264ZM0.914906 6.048L-0.00496125 5.6557L-0.00776267 5.66241L0.914906 6.048ZM0.890906 13.176L-0.0385843 13.5451L-0.0337718 13.5567L0.890906 13.176ZM2.76291 15.984L2.06294 16.6982L2.07008 16.7051L2.76291 15.984ZM5.61891 17.808L5.24987 18.7374L5.25451 18.7392L5.61891 17.808ZM12.8909 17.712L12.471 16.8044L12.8909 17.712ZM15.5789 15.672L14.8118 15.0304L14.8107 15.0318L15.5789 15.672ZM17.1869 12.648L16.2316 12.352L16.228 12.3644L17.1869 12.648ZM17.6429 9.024L18.6422 8.98653L18.6061 8.024H17.6429V9.024ZM9.36291 9.024V8.024H8.36291V9.024H9.36291ZM9.36291 12.76H14.1869V10.76H9.36291V12.76ZM13.2243 11.4893C13.1052 11.9126 12.9354 12.2958 12.7167 12.6432L14.4091 13.7088C14.7344 13.1922 14.9806 12.6313 15.1496 12.0307L13.2243 11.4893ZM12.7167 12.6432C12.5012 12.9855 12.2342 13.2914 11.9117 13.5623L13.1981 15.0937C13.6756 14.6926 14.0806 14.2305 14.4091 13.7088L12.7167 12.6432ZM11.8964 13.5754C11.6196 13.8177 11.27 14.0218 10.8301 14.177L11.4957 16.063C12.1439 15.8342 12.7223 15.5103 13.2134 15.0806L11.8964 13.5754ZM10.8551 14.1686C10.4284 14.3066 9.91894 14.384 9.31491 14.384V16.384C10.0869 16.384 10.8095 16.2854 11.4707 16.0714L10.8551 14.1686ZM9.31491 14.384C8.43536 14.384 7.67421 14.183 7.00663 13.7978L6.00718 15.5302C7.0036 16.105 8.11445 16.384 9.31491 16.384V14.384ZM7.01393 13.8021C6.35859 13.4166 5.83442 12.8776 5.43706 12.1624L3.68875 13.1336C4.2514 14.1464 5.02322 14.9514 5.99989 15.5259L7.01393 13.8021ZM5.4408 12.1691C5.05218 11.4567 4.84291 10.6099 4.84291 9.6H2.84291C2.84291 10.8941 3.11363 12.0793 3.68501 13.1269L5.4408 12.1691ZM4.84291 9.6C4.84291 8.57036 5.05364 7.73909 5.43316 7.0686L3.69265 6.0834C3.11218 7.10891 2.84291 8.29364 2.84291 9.6H4.84291ZM5.42609 7.08088C5.83321 6.38485 6.36533 5.86984 7.02901 5.51247L6.08081 3.75153C5.08049 4.29016 4.2846 5.07115 3.69972 6.07112L5.42609 7.08088ZM7.04198 5.50536C7.71636 5.12926 8.46715 4.936 9.31491 4.936V2.936C8.14667 2.936 7.05745 3.20674 6.06784 3.75864L7.04198 5.50536ZM9.31491 4.936C10.242 4.936 10.9507 5.13565 11.4936 5.47792L12.5602 3.78607C11.6311 3.20035 10.5318 2.936 9.31491 2.936V4.936ZM11.5151 5.4911C12.1231 5.85333 12.5811 6.32103 12.9083 6.90006L14.6495 5.91594C14.1447 5.02297 13.4347 4.30666 12.5387 3.7729L11.5151 5.4911ZM14.2819 7.27229L17.2099 5.56829L16.2039 3.83971L13.2759 5.54371L14.2819 7.27229ZM17.5442 4.15721C16.9733 3.28305 16.2825 2.52839 15.4728 1.89865L14.245 3.47735C14.8753 3.9676 15.4165 4.55695 15.8696 5.25079L17.5442 4.15721ZM15.4921 1.91404C14.6897 1.25747 13.7678 0.754097 12.7369 0.398627L12.0849 2.28937C12.9101 2.5739 13.6201 2.96653 14.2257 3.46196L15.4921 1.91404ZM12.742 0.4004C11.7054 0.0366821 10.5586 -0.136001 9.31491 -0.136001V1.864C10.3752 1.864 11.2924 2.01132 12.0798 2.2876L12.742 0.4004ZM9.31491 -0.136001C7.91032 -0.136001 6.5896 0.0897679 5.3623 0.552229L6.06752 2.42377C7.04822 2.05423 8.12749 1.864 9.31491 1.864V-0.136001ZM5.3623 0.552228C4.1414 1.01228 3.0667 1.67259 2.14954 2.5358L3.52027 3.9922C4.23511 3.31941 5.08041 2.79572 6.06751 2.42377L5.3623 0.552228ZM2.14954 2.5358C1.22751 3.4036 0.510142 4.44794 -0.00493699 5.65571L1.83475 6.44029C2.24767 5.47206 2.81031 4.6604 3.52027 3.9922L2.14954 2.5358ZM-0.00776267 5.66241C-0.512391 6.86991 -0.757094 8.18691 -0.757094 9.6H1.24291C1.24291 8.42109 1.4462 7.37009 1.83758 6.43359L-0.00776267 5.66241ZM-0.757094 9.6C-0.757094 11.0088 -0.521889 12.3276 -0.0385101 13.545L1.82032 12.807C1.4397 11.8484 1.24291 10.7832 1.24291 9.6H-0.757094ZM-0.0337718 13.5567C0.463142 14.7635 1.16141 15.8147 2.06298 16.6982L3.46283 15.2698C2.76441 14.5853 2.21467 13.7645 1.81558 12.7952L-0.0337718 13.5567ZM2.07008 16.7051C2.98273 17.582 4.0457 18.2593 5.24987 18.7374L5.98794 16.8786C5.01611 16.4927 4.17508 15.954 3.45573 15.2629L2.07008 16.7051ZM5.25451 18.7392C6.485 19.2207 7.80987 19.456 9.21891 19.456V17.456C8.03594 17.456 6.96081 17.2593 5.98331 16.8768L5.25451 18.7392ZM9.21891 19.456C10.7162 19.456 12.0872 19.1857 13.3108 18.6196L12.471 16.8044C11.5506 17.2303 10.4737 17.456 9.21891 17.456V19.456ZM13.3108 18.6196C14.5104 18.0645 15.5275 17.2957 16.3471 16.3122L14.8107 15.0318C14.1903 15.7763 13.4154 16.3675 12.471 16.8044L13.3108 18.6196ZM16.346 16.3136C17.1726 15.3252 17.7723 14.1944 18.1458 12.9316L16.228 12.3644C15.9295 13.3736 15.4572 14.2588 14.8118 15.0304L16.346 16.3136ZM18.1421 12.944C18.53 11.6921 18.6941 10.3707 18.6422 8.98653L16.6436 9.06147C16.6877 10.2373 16.5478 11.3319 16.2317 12.352L18.1421 12.944ZM17.6429 8.024H9.36291V10.024H17.6429V8.024ZM8.36291 9.024V11.76H10.3629V9.024H8.36291Z" fill="#3A3C45"/>
</svg>
