<svg width="18" height="21" viewBox="0 0 18 21" fill="none" xmlns="http://www.w3.org/2000/svg">
<path d="M14.657 14.6567L15.3641 15.3638L15.3641 15.3638L14.657 14.6567ZM10.414 18.8997L11.1208 19.6072L11.1211 19.6068L10.414 18.8997ZM7.587 18.8997L6.87998 19.6069L6.88025 19.6072L7.587 18.8997ZM3.343 14.6567L2.63588 15.3638L2.63598 15.3639L3.343 14.6567ZM11 8.99976C11 10.1043 10.1046 10.9998 9 10.9998V12.9998C11.2091 12.9998 13 11.2089 13 8.99976H11ZM9 10.9998C7.89543 10.9998 7 10.1043 7 8.99976H5C5 11.2089 6.79086 12.9998 9 12.9998V10.9998ZM7 8.99976C7 7.89519 7.89543 6.99976 9 6.99976V4.99976C6.79086 4.99976 5 6.79062 5 8.99976H7ZM9 6.99976C10.1046 6.99976 11 7.89519 11 8.99976H13C13 6.79062 11.2091 4.99976 9 4.99976V6.99976ZM13.9499 13.9496L9.7069 18.1926L11.1211 19.6068L15.3641 15.3638L13.9499 13.9496ZM9.70725 18.1922C9.51975 18.3796 9.26554 18.4848 9.0005 18.4848V20.4848C9.79563 20.4848 10.5582 20.1691 11.1208 19.6072L9.70725 18.1922ZM9.0005 18.4848C8.73546 18.4848 8.48126 18.3796 8.29375 18.1922L6.88025 19.6072C7.44278 20.1691 8.20538 20.4848 9.0005 20.4848V18.4848ZM8.29403 18.1925L4.05003 13.9495L2.63598 15.3639L6.87998 19.6069L8.29403 18.1925ZM4.05013 13.9496C3.0712 12.9706 2.40455 11.7234 2.13448 10.3655L0.172902 10.7556C0.520132 12.5015 1.37725 14.1051 2.63588 15.3638L4.05013 13.9496ZM2.13448 10.3655C1.86441 9.00764 2.00306 7.60019 2.53288 6.32113L0.685132 5.55574C0.00392985 7.20025 -0.174327 9.00983 0.172902 10.7556L2.13448 10.3655ZM2.53288 6.32113C3.06271 5.04207 3.95991 3.94884 5.11105 3.17969L3.99992 1.51674C2.51989 2.50565 1.36633 3.91123 0.685132 5.55574L2.53288 6.32113ZM5.11105 3.17969C6.26219 2.41053 7.61555 2 9 2V0C7.21999 0 5.47995 0.527829 3.99992 1.51674L5.11105 3.17969ZM9 2C10.3845 2 11.7378 2.41053 12.889 3.17969L14.0001 1.51674C12.5201 0.527829 10.78 0 9 0V2ZM12.889 3.17969C14.0401 3.94884 14.9373 5.04207 15.4671 6.32113L17.3149 5.55574C16.6337 3.91123 15.4801 2.50565 14.0001 1.51674L12.889 3.17969ZM15.4671 6.32113C15.997 7.60019 16.1356 9.00764 15.8655 10.3655L17.8271 10.7556C18.1743 9.00983 17.9961 7.20025 17.3149 5.55574L15.4671 6.32113ZM15.8655 10.3655C15.5955 11.7234 14.9288 12.9706 13.9499 13.9496L15.3641 15.3638C16.6228 14.1051 17.4799 12.5015 17.8271 10.7556L15.8655 10.3655Z" fill="#8B929A"/>
</svg>
