<svg width="20" height="18" viewBox="0 0 20 18" fill="none" xmlns="http://www.w3.org/2000/svg">
<path d="M11 5C11 5.55228 11.4477 6 12 6C12.5523 6 13 5.55228 13 5H11ZM10 1V0V1ZM3 1V0V1ZM1 3H0H1ZM1 15H0H1ZM13 13C13 12.4477 12.5523 12 12 12C11.4477 12 11 12.4477 11 13H13ZM5 8C4.44772 8 4 8.44772 4 9C4 9.55229 4.44772 10 5 10V8ZM19 9L19.7071 9.70711C20.0976 9.31658 20.0976 8.68342 19.7071 8.29289L19 9ZM16.7071 5.29289C16.3166 4.90237 15.6834 4.90237 15.2929 5.29289C14.9024 5.68342 14.9024 6.31658 15.2929 6.70711L16.7071 5.29289ZM15.2929 11.2929C14.9024 11.6834 14.9024 12.3166 15.2929 12.7071C15.6834 13.0976 16.3166 13.0976 16.7071 12.7071L15.2929 11.2929ZM13 5V3H11V5H13ZM13 3C13 2.20435 12.6839 1.44129 12.1213 0.87868L10.7071 2.29289C10.8946 2.48043 11 2.73478 11 3H13ZM12.1213 0.87868C11.5587 0.31607 10.7956 0 10 0V2C10.2652 2 10.5196 2.10536 10.7071 2.29289L12.1213 0.87868ZM10 0H3V2H10V0ZM3 0C2.20435 0 1.44129 0.31607 0.87868 0.87868L2.29289 2.29289C2.48043 2.10536 2.73478 2 3 2V0ZM0.87868 0.87868C0.31607 1.44129 0 2.20435 0 3H2C2 2.73478 2.10536 2.48043 2.29289 2.29289L0.87868 0.87868ZM0 3V15H2V3H0ZM0 15C0 15.7956 0.31607 16.5587 0.87868 17.1213L2.29289 15.7071C2.10536 15.5196 2 15.2652 2 15H0ZM0.87868 17.1213C1.44129 17.6839 2.20435 18 3 18V16C2.73478 16 2.48043 15.8946 2.29289 15.7071L0.87868 17.1213ZM3 18H10V16H3V18ZM10 18C10.7957 18 11.5587 17.6839 12.1213 17.1213L10.7071 15.7071C10.5196 15.8946 10.2652 16 10 16V18ZM12.1213 17.1213C12.6839 16.5587 13 15.7957 13 15H11C11 15.2652 10.8946 15.5196 10.7071 15.7071L12.1213 17.1213ZM13 15V13H11V15H13ZM5 10H19V8H5V10ZM19.7071 8.29289L16.7071 5.29289L15.2929 6.70711L18.2929 9.70711L19.7071 8.29289ZM16.7071 12.7071L19.7071 9.70711L18.2929 8.29289L15.2929 11.2929L16.7071 12.7071Z" fill="#8B929A"/>
</svg>
