<svg width="18" height="18" viewBox="0 0 18 18" fill="none" xmlns="http://www.w3.org/2000/svg">
<path d="M7 1V0C6.44772 0 6 0.447715 6 1L7 1ZM17 1H18C18 0.447715 17.5523 0 17 0V1ZM7 4C6.44772 4 6 4.44772 6 5C6 5.55228 6.44772 6 7 6V4ZM17 6C17.5523 6 18 5.55228 18 5C18 4.44772 17.5523 4 17 4V6ZM6 14C6 15.1046 5.10457 16 4 16V18C6.20914 18 8 16.2091 8 14H6ZM4 16C2.89543 16 2 15.1046 2 14H0C0 16.2091 1.79086 18 4 18V16ZM2 14C2 12.8954 2.89543 12 4 12V10C1.79086 10 0 11.7909 0 14H2ZM4 12C5.10457 12 6 12.8954 6 14H8C8 11.7909 6.20914 10 4 10V12ZM16 14C16 15.1046 15.1046 16 14 16V18C16.2091 18 18 16.2091 18 14H16ZM14 16C12.8954 16 12 15.1046 12 14H10C10 16.2091 11.7909 18 14 18V16ZM12 14C12 12.8954 12.8954 12 14 12V10C11.7909 10 10 11.7909 10 14H12ZM14 12C15.1046 12 16 12.8954 16 14H18C18 11.7909 16.2091 10 14 10V12ZM8 14V1H6V14H8ZM7 2H17V0H7V2ZM16 1V14H18V1H16ZM7 6H17V4H7V6Z" fill="#8B929A"/>
</svg>
