<svg width="18" height="20" viewBox="0 0 18 20" fill="none" xmlns="http://www.w3.org/2000/svg">
<path d="M14 1C14 0.447715 13.5523 0 13 0C12.4477 0 12 0.447715 12 1H14ZM12 5C12 5.55228 12.4477 6 13 6C13.5523 6 14 5.55228 14 5H12ZM6 1C6 0.447715 5.55228 0 5 0C4.44772 0 4 0.447715 4 1H6ZM4 5C4 5.55228 4.44772 6 5 6C5.55228 6 6 5.55228 6 5H4ZM1 8C0.447715 8 0 8.44772 0 9C0 9.55229 0.447715 10 1 10V8ZM17 10C17.5523 10 18 9.55229 18 9C18 8.44772 17.5523 8 17 8V10ZM3 4H15V2H3V4ZM15 4C15.5523 4 16 4.44772 16 5H18C18 3.34315 16.6569 2 15 2V4ZM16 5V17H18V5H16ZM16 17C16 17.5523 15.5523 18 15 18V20C16.6569 20 18 18.6569 18 17H16ZM15 18H3V20H15V18ZM3 18C2.44772 18 2 17.5523 2 17H0C0 18.6569 1.34315 20 3 20V18ZM2 17V5H0V17H2ZM2 5C2 4.44772 2.44772 4 3 4V2C1.34315 2 0 3.34315 0 5H2ZM12 1V5H14V1H12ZM4 1V5H6V1H4ZM1 10H17V8H1V10Z" fill="#8B929A"/>
</svg>
