<svg width="20" height="19" viewBox="0 0 20 19" fill="none" xmlns="http://www.w3.org/2000/svg">
<path d="M3 5V4V5ZM5 5V6V5ZM8 2V3V2ZM10 3C10.5523 3 11 2.55228 11 2C11 1.44772 10.5523 1 10 1V3ZM20 9C20 8.44772 19.5523 8 19 8C18.4477 8 18 8.44772 18 9H20ZM1 16H0H1ZM13 3C12.4477 3 12 3.44772 12 4C12 4.55228 12.4477 5 13 5V3ZM19 5C19.5523 5 20 4.55228 20 4C20 3.44772 19.5523 3 19 3V5ZM17 1C17 0.447715 16.5523 0 16 0C15.4477 0 15 0.447715 15 1H17ZM15 7C15 7.55228 15.4477 8 16 8C16.5523 8 17 7.55228 17 7H15ZM12 11C12 12.1046 11.1046 13 10 13V15C12.2091 15 14 13.2091 14 11H12ZM10 13C8.89543 13 8 12.1046 8 11H6C6 13.2091 7.79086 15 10 15V13ZM8 11C8 9.89543 8.89543 9 10 9V7C7.79086 7 6 8.79086 6 11H8ZM10 9C11.1046 9 12 9.89543 12 11H14C14 8.79086 12.2091 7 10 7V9ZM3 6H5V4H3V6ZM5 6C5.79565 6 6.55871 5.68393 7.12132 5.12132L5.70711 3.70711C5.51957 3.89464 5.26522 4 5 4V6ZM7.12132 5.12132C7.68393 4.55871 8 3.79565 8 3H6C6 3.26522 5.89464 3.51957 5.70711 3.70711L7.12132 5.12132ZM8 3V3L6.58579 1.58579C6.21071 1.96086 6 2.46957 6 3H8ZM8 3V3V1C7.46957 1 6.96086 1.21071 6.58579 1.58579L8 3ZM8 3H10V1H8V3ZM18 9V16H20V9H18ZM18 16C18 16.2652 17.8946 16.5196 17.7071 16.7071L19.1213 18.1213C19.6839 17.5587 20 16.7957 20 16H18ZM17.7071 16.7071C17.5196 16.8946 17.2652 17 17 17V19C17.7957 19 18.5587 18.6839 19.1213 18.1213L17.7071 16.7071ZM17 17H3V19H17V17ZM3 17C2.73478 17 2.48043 16.8946 2.29289 16.7071L0.87868 18.1213C1.44129 18.6839 2.20435 19 3 19V17ZM2.29289 16.7071C2.10536 16.5196 2 16.2652 2 16H0C0 16.7956 0.31607 17.5587 0.87868 18.1213L2.29289 16.7071ZM2 16V7H0V16H2ZM2 7C2 6.73478 2.10536 6.48043 2.29289 6.29289L0.87868 4.87868C0.31607 5.44129 0 6.20435 0 7H2ZM2.29289 6.29289C2.48043 6.10536 2.73478 6 3 6V4C2.20435 4 1.44129 4.31607 0.87868 4.87868L2.29289 6.29289ZM13 5H19V3H13V5ZM15 1V7H17V1H15Z" fill="#8B929A"/>
</svg>
