<svg width="22" height="21" viewBox="0 0 22 21" fill="none" xmlns="http://www.w3.org/2000/svg">
<path d="M10.9998 16.75L11.466 15.8653C11.1745 15.7117 10.8261 15.7115 10.5345 15.8648L10.9998 16.75ZM4.82784 19.995L3.84223 19.8259C3.77787 20.2011 3.9321 20.5802 4.24005 20.804C4.548 21.0277 4.95628 21.0572 5.2932 20.8801L4.82784 19.995ZM6.00684 13.122L6.99244 13.291C7.04813 12.9664 6.94038 12.6351 6.70435 12.4054L6.00684 13.122ZM1.00684 8.25495L0.863407 7.26529C0.486509 7.31992 0.173355 7.58388 0.0557293 7.94609C-0.0618966 8.30831 0.0364276 8.70589 0.309324 8.97153L1.00684 8.25495ZM7.90684 7.25495L8.05026 8.24461C8.37612 8.19739 8.65785 7.99278 8.80357 7.69751L7.90684 7.25495ZM10.9928 1.00195L11.8896 0.559392C11.7211 0.218054 11.3735 0.00195312 10.9928 0.00195312C10.6122 0.00195312 10.2646 0.218054 10.0961 0.559392L10.9928 1.00195ZM14.0788 7.25495L13.1821 7.69751C13.3278 7.99278 13.6095 8.19739 13.9354 8.24461L14.0788 7.25495ZM20.9788 8.25495L21.6763 8.97153C21.9492 8.70589 22.0476 8.30831 21.9299 7.94609C21.8123 7.58388 21.4992 7.31992 21.1223 7.26529L20.9788 8.25495ZM15.9788 13.122L15.2813 12.4054C15.0453 12.6351 14.9375 12.9664 14.9932 13.291L15.9788 13.122ZM17.1578 19.995L16.6916 20.8796C17.0286 21.0572 17.437 21.0279 17.7452 20.8042C18.0534 20.5805 18.2078 20.2012 18.1434 19.8259L17.1578 19.995ZM10.5345 15.8648L4.36247 19.1098L5.2932 20.8801L11.4652 17.6351L10.5345 15.8648ZM5.81344 20.164L6.99244 13.291L5.02123 12.9529L3.84223 19.8259L5.81344 20.164ZM6.70435 12.4054L1.70435 7.53838L0.309324 8.97153L5.30932 13.8385L6.70435 12.4054ZM1.15027 9.24461L8.05026 8.24461L7.76341 6.26529L0.863407 7.26529L1.15027 9.24461ZM8.80357 7.69751L11.8896 1.44451L10.0961 0.559392L7.0101 6.81239L8.80357 7.69751ZM10.0961 1.44451L13.1821 7.69751L14.9756 6.81239L11.8896 0.559392L10.0961 1.44451ZM13.9354 8.24461L20.8354 9.24461L21.1223 7.26529L14.2223 6.26529L13.9354 8.24461ZM20.2813 7.53838L15.2813 12.4054L16.6763 13.8385L21.6763 8.97153L20.2813 7.53838ZM14.9932 13.291L16.1722 20.164L18.1434 19.8259L16.9644 12.9529L14.9932 13.291ZM17.624 19.1103L11.466 15.8653L10.5336 17.6346L16.6916 20.8796L17.624 19.1103Z" fill="#8B929A"/>
</svg>
